<svg xmlns="http://www.w3.org/2000/svg" viewBox="0 0 1600 900" role="img" aria-labelledby="title desc">
  <title id="title">Anti-monotone street-koan mural</title>
  <desc id="desc">A chaotic street-art inspired mural with a red lobster, a faceless figure, clocks, birds, circuitry, warning symbols, flowers, and graffiti-like koan fragments.</desc>
  <defs>
    <filter id="rough"><feTurbulence type="fractalNoise" baseFrequency="0.022" numOctaves="4" seed="17"/><feDisplacementMap in="SourceGraphic" scale="7"/></filter>
    <filter id="spray"><feTurbulence type="fractalNoise" baseFrequency="0.15" numOctaves="3" seed="9"/><feColorMatrix type="saturate" values="0"/><feComponentTransfer><feFuncA type="table" tableValues="0 0.7"/></feComponentTransfer></filter>
    <linearGradient id="wall" x1="0" x2="1" y1="0" y2="1"><stop offset="0" stop-color="#f8f2d8"/><stop offset=".35" stop-color="#e6dfcb"/><stop offset="1" stop-color="#b9b0a0"/></linearGradient>
  </defs>
  <rect width="1600" height="900" fill="url(#wall)"/>
  <g opacity=".55"><path d="M0 195h1600M0 365h1600M0 545h1600M0 725h1600M240 0v900M522 0v900M795 0v900M1070 0v900M1360 0v900" stroke="#6b625a" stroke-width="6" opacity=".25"/><path d="M90 140c100 30 160-50 230 20s190 20 250-10 180 70 300 15 190-120 310-40 250-20 340 40" fill="none" stroke="#111" stroke-width="5" opacity=".18"/></g>
  <g filter="url(#spray)" opacity=".45"><rect width="1600" height="900" fill="#000"/></g>
  <g filter="url(#rough)">
    <path d="M80 115l430-35-30 250-430 35z" fill="#ffea00" stroke="#111" stroke-width="11"/>
    <path d="M1020 70l435 75-45 250-445-50z" fill="#0f4cff" stroke="#111" stroke-width="10"/>
    <path d="M170 635l540-75 40 210-540 90z" fill="#ff0044" stroke="#111" stroke-width="12"/>
    <path d="M930 610l480-45 35 210-500 65z" fill="#fdf7e2" stroke="#111" stroke-width="10"/>
  </g>
  <g transform="translate(700 175)" filter="url(#rough)">
    <circle cx="130" cy="170" r="112" fill="#f9f4df" stroke="#111" stroke-width="18"/>
    <path d="M130 70c80 65 77 143 0 212-77-69-80-147 0-212z" fill="#111"/>
    <path d="M30 320c40-70 165-95 250 0l75 285H-55z" fill="#111"/>
    <path d="M130 25v-70M70 44L25-10M190 44l45-54M245 110l85-20M15 110l-85-20" stroke="#ffea00" stroke-width="16" stroke-linecap="round"/>
    <path d="M37 315c25 95 78 142 160 142" fill="none" stroke="#0f4cff" stroke-width="10" stroke-linecap="round"/>
  </g>
  <g transform="translate(230 295) rotate(-9)" filter="url(#rough)">
    <ellipse cx="210" cy="145" rx="138" ry="95" fill="#e4002b" stroke="#111" stroke-width="18"/>
    <path d="M95 116c-70-65-120-45-150 15 55-5 88 18 112 62M326 116c70-65 120-45 150 15-55-5-88 18-112 62" fill="none" stroke="#111" stroke-width="18" stroke-linecap="round"/>
    <circle cx="165" cy="110" r="15" fill="#111"/><circle cx="255" cy="110" r="15" fill="#111"/>
    <path d="M150 172c42 24 83 24 123 0" fill="none" stroke="#111" stroke-width="10" stroke-linecap="round"/>
    <path d="M88 220l-65 80M145 238l-35 105M210 248l5 116M275 238l40 105M336 220l70 80" stroke="#111" stroke-width="16" stroke-linecap="round"/>
    <rect x="315" y="-34" width="260" height="120" rx="8" fill="#fdf7e2" stroke="#111" stroke-width="13"/>
    <path d="M350 5h190M345 38h105M470 38h60" stroke="#111" stroke-width="12" stroke-linecap="square"/>
  </g>
  <g opacity=".95" font-family="Impact, Haettenschweiler, 'Arial Black', sans-serif" font-weight="900" fill="#111">
    <text x="96" y="210" font-size="54" transform="rotate(-5 96 210)">THE DOOR</text>
    <text x="116" y="270" font-size="34" transform="rotate(-5 116 270)">KNOCKS BACK</text>
    <text x="1050" y="200" font-size="44" fill="#fdf7e2" transform="rotate(8 1050 200)">A MAP OF</text>
    <text x="1038" y="260" font-size="64" fill="#fdf7e2" transform="rotate(8 1038 260)">WRONG TURNS</text>
    <text x="236" y="743" font-size="58" fill="#fdf7e2" transform="rotate(-8 236 743)">OBEY THE QUESTION</text>
    <text x="980" y="710" font-size="42" transform="rotate(-4 980 710)">THE MIRROR</text>
    <text x="1010" y="764" font-size="42" transform="rotate(-4 1010 764)">HAS TEETH</text>
  </g>
  <g fill="none" stroke="#111" stroke-width="10" stroke-linecap="round" opacity=".95">
    <circle cx="1270" cy="475" r="67" fill="#fdf7e2"/><path d="M1270 475l38-38M1270 475l-18 45"/><path d="M1200 475h-50M1340 475h50"/>
    <circle cx="1395" cy="505" r="35" fill="#ffea00"/><path d="M1395 505l-20 18M1395 505v-28"/>
    <path d="M100 500c70-55 135-55 195 0M145 500c50-20 87-20 125 0"/>
    <path d="M560 125l40 50 62-85 48 70 54-90" stroke="#ff0044"/>
    <path d="M555 505l55-55 55 55 55-55 55 55" stroke="#0f4cff"/>
  </g>
  <g fill="#111" opacity=".9">
    <path d="M1150 350l60 25-55 35 15-31z"/><path d="M1220 318l70 6-55 45 3-34z"/><path d="M260 458l55 15-45 33 10-25z"/>
    <path d="M139 805c12-80 38-125 84-145-17 55-8 97 35 126-45-4-78 2-119 19z" fill="#00aa55"/>
    <circle cx="233" cy="657" r="19" fill="#ffea00"/><circle cx="262" cy="681" r="15" fill="#ff0044"/><circle cx="205" cy="688" r="13" fill="#0f4cff"/>
  </g>
  <g stroke="#111" stroke-width="7" opacity=".75"><path d="M20 40h1560v820H20z" fill="none" stroke-dasharray="30 18"/><path d="M760 70c-45 72-18 110 60 118M890 810c62-48 62-94 0-138M70 600c120 12 204-19 250-93M1500 320c-83 80-166 97-250 50" fill="none"/></g>
</svg>
